<svg width="78" height="77" viewBox="0 0 78 77" fill="none" xmlns="http://www.w3.org/2000/svg">
<g filter="url(#filter0_i_25_3048)">
<rect x="0.5" width="77" height="77" rx="8" fill="#5700FF"/>
<path d="M27.75 28.8963V27.25C27.75 24.92 29.6388 23.0312 31.9688 23.0312H46.0312C48.3612 23.0312 50.25 24.92 50.25 27.25V28.8963M27.75 28.8963C28.1898 28.7408 28.6632 28.6562 29.1562 28.6562H48.8438C49.3368 28.6562 49.8102 28.7408 50.25 28.8963M27.75 28.8963C26.1114 29.4754 24.9375 31.0381 24.9375 32.875V34.5213M50.25 28.8963C51.8886 29.4754 53.0625 31.0381 53.0625 32.875V34.5213M53.0625 34.5213C52.6227 34.3658 52.1493 34.2812 51.6562 34.2812H26.3438C25.8507 34.2812 25.3773 34.3658 24.9375 34.5213M53.0625 34.5213C54.7011 35.1005 55.875 36.6631 55.875 38.5V49.75C55.875 52.08 53.9862 53.9688 51.6562 53.9688H26.3438C24.0138 53.9688 22.125 52.08 22.125 49.75V38.5C22.125 36.6631 23.2989 35.1005 24.9375 34.5213" stroke="#FDFDFC" stroke-width="2" stroke-linecap="round" stroke-linejoin="round"/>
</g>
<defs>
<filter id="filter0_i_25_3048" x="0.5" y="0" width="77" height="77" filterUnits="userSpaceOnUse" color-interpolation-filters="sRGB">
<feFlood flood-opacity="0" result="BackgroundImageFix"/>
<feBlend mode="normal" in="SourceGraphic" in2="BackgroundImageFix" result="shape"/>
<feColorMatrix in="SourceAlpha" type="matrix" values="0 0 0 0 0 0 0 0 0 0 0 0 0 0 0 0 0 0 127 0" result="hardAlpha"/>
<feMorphology radius="4" operator="erode" in="SourceAlpha" result="effect1_innerShadow_25_3048"/>
<feOffset/>
<feGaussianBlur stdDeviation="7"/>
<feComposite in2="hardAlpha" operator="arithmetic" k2="-1" k3="1"/>
<feColorMatrix type="matrix" values="0 0 0 0 1 0 0 0 0 1 0 0 0 0 1 0 0 0 0.5 0"/>
<feBlend mode="normal" in2="shape" result="effect1_innerShadow_25_3048"/>
</filter>
</defs>
</svg>
