<svg width="78" height="77" viewBox="0 0 78 77" fill="none" xmlns="http://www.w3.org/2000/svg">
<g filter="url(#filter0_i_25_3096)">
<rect x="0.5" width="77" height="77" rx="8" fill="#5700FF"/>
<path d="M22.125 31.4688V49.75C22.125 52.08 24.0138 53.9688 26.3438 53.9688H51.6562C53.9862 53.9688 55.875 52.08 55.875 49.75V31.4688M22.125 31.4688V27.25C22.125 24.92 24.0138 23.0312 26.3438 23.0312H51.6562C53.9862 23.0312 55.875 24.92 55.875 27.25V31.4688M22.125 31.4688H55.875M26.3438 27.25H26.3578V27.2641H26.3438V27.25ZM30.5625 27.25H30.5766V27.2641H30.5625V27.25ZM34.7812 27.25H34.7953V27.2641H34.7812V27.25Z" stroke="#FDFDFC" stroke-width="2" stroke-linecap="round" stroke-linejoin="round"/>
</g>
<defs>
<filter id="filter0_i_25_3096" x="0.5" y="0" width="77" height="77" filterUnits="userSpaceOnUse" color-interpolation-filters="sRGB">
<feFlood flood-opacity="0" result="BackgroundImageFix"/>
<feBlend mode="normal" in="SourceGraphic" in2="BackgroundImageFix" result="shape"/>
<feColorMatrix in="SourceAlpha" type="matrix" values="0 0 0 0 0 0 0 0 0 0 0 0 0 0 0 0 0 0 127 0" result="hardAlpha"/>
<feMorphology radius="4" operator="erode" in="SourceAlpha" result="effect1_innerShadow_25_3096"/>
<feOffset/>
<feGaussianBlur stdDeviation="7"/>
<feComposite in2="hardAlpha" operator="arithmetic" k2="-1" k3="1"/>
<feColorMatrix type="matrix" values="0 0 0 0 1 0 0 0 0 1 0 0 0 0 1 0 0 0 0.5 0"/>
<feBlend mode="normal" in2="shape" result="effect1_innerShadow_25_3096"/>
</filter>
</defs>
</svg>
