<svg width="78" height="77" viewBox="0 0 78 77" fill="none" xmlns="http://www.w3.org/2000/svg">
<g filter="url(#filter0_i_25_3087)">
<rect x="0.5" width="77" height="77" rx="8" fill="#5700FF"/>
<path d="M44.625 51.8642C46.1868 52.3188 47.8383 52.5625 49.5468 52.5625C52.3195 52.5625 54.9422 51.9205 57.2745 50.7772C57.2789 50.6697 57.2812 50.5617 57.2812 50.4531C57.2812 46.1815 53.8184 42.7188 49.5468 42.7188C46.888 42.7188 44.5425 44.0603 43.1504 46.1035M44.625 51.8642V51.8594C44.625 49.7727 44.0903 47.8109 43.1504 46.1035M44.625 51.8642C44.625 51.931 44.6244 51.9978 44.6233 52.0644C41.1325 54.1661 37.0434 55.375 32.6719 55.375C28.3004 55.375 24.2112 54.1661 20.7205 52.0644C20.7193 51.9962 20.7188 51.9278 20.7188 51.8594C20.7188 45.2578 26.0703 39.9062 32.6719 39.9062C37.1867 39.9062 41.1169 42.4094 43.1504 46.1035M39 27.9531C39 31.4481 36.1668 34.2812 32.6719 34.2812C29.1769 34.2812 26.3438 31.4481 26.3438 27.9531C26.3438 24.4582 29.1769 21.625 32.6719 21.625C36.1668 21.625 39 24.4582 39 27.9531ZM54.4688 32.1719C54.4688 34.8902 52.2652 37.0938 49.5469 37.0938C46.8286 37.0938 44.625 34.8902 44.625 32.1719C44.625 29.4536 46.8286 27.25 49.5469 27.25C52.2652 27.25 54.4688 29.4536 54.4688 32.1719Z" stroke="#FDFDFC" stroke-width="2" stroke-linecap="round" stroke-linejoin="round"/>
</g>
<defs>
<filter id="filter0_i_25_3087" x="0.5" y="0" width="77" height="77" filterUnits="userSpaceOnUse" color-interpolation-filters="sRGB">
<feFlood flood-opacity="0" result="BackgroundImageFix"/>
<feBlend mode="normal" in="SourceGraphic" in2="BackgroundImageFix" result="shape"/>
<feColorMatrix in="SourceAlpha" type="matrix" values="0 0 0 0 0 0 0 0 0 0 0 0 0 0 0 0 0 0 127 0" result="hardAlpha"/>
<feMorphology radius="4" operator="erode" in="SourceAlpha" result="effect1_innerShadow_25_3087"/>
<feOffset/>
<feGaussianBlur stdDeviation="7"/>
<feComposite in2="hardAlpha" operator="arithmetic" k2="-1" k3="1"/>
<feColorMatrix type="matrix" values="0 0 0 0 1 0 0 0 0 1 0 0 0 0 1 0 0 0 0.5 0"/>
<feBlend mode="normal" in2="shape" result="effect1_innerShadow_25_3087"/>
</filter>
</defs>
</svg>
