<svg width="78" height="77" viewBox="0 0 78 77" fill="none" xmlns="http://www.w3.org/2000/svg">
<g filter="url(#filter0_i_25_3104)">
<rect x="0.5" width="77" height="77" rx="8" fill="#5700FF"/>
<path d="M44.7043 56.6346L42.1566 47.1263M42.1566 47.1263L37.4514 51.2988L38.5172 33.5429L48.3181 48.3871L42.1566 47.1263ZM28.0619 46.6256C22.021 40.5846 22.021 30.7904 28.0619 24.7494C34.1029 18.7085 43.8971 18.7085 49.9381 24.7494C52.9584 27.7698 54.4687 31.7285 54.4688 35.6872M32.0394 42.6481C28.1952 38.8039 28.1952 32.5711 32.0394 28.7269C35.8836 24.8827 42.1164 24.8827 45.9606 28.7269C47.8827 30.649 48.8437 33.1682 48.8438 35.6874" stroke="#FDFDFC" stroke-width="2" stroke-linecap="round" stroke-linejoin="round"/>
</g>
<defs>
<filter id="filter0_i_25_3104" x="0.5" y="0" width="77" height="77" filterUnits="userSpaceOnUse" color-interpolation-filters="sRGB">
<feFlood flood-opacity="0" result="BackgroundImageFix"/>
<feBlend mode="normal" in="SourceGraphic" in2="BackgroundImageFix" result="shape"/>
<feColorMatrix in="SourceAlpha" type="matrix" values="0 0 0 0 0 0 0 0 0 0 0 0 0 0 0 0 0 0 127 0" result="hardAlpha"/>
<feMorphology radius="4" operator="erode" in="SourceAlpha" result="effect1_innerShadow_25_3104"/>
<feOffset/>
<feGaussianBlur stdDeviation="7"/>
<feComposite in2="hardAlpha" operator="arithmetic" k2="-1" k3="1"/>
<feColorMatrix type="matrix" values="0 0 0 0 1 0 0 0 0 1 0 0 0 0 1 0 0 0 0.5 0"/>
<feBlend mode="normal" in2="shape" result="effect1_innerShadow_25_3104"/>
</filter>
</defs>
</svg>
